<svg id="visual" viewBox="0 0 450 900" width="450" height="900" xmlns="http://www.w3.org/2000/svg" xmlns:xlink="http://www.w3.org/1999/xlink" version="1.1"><path d="M0 271L6.8 262C13.7 253 27.3 235 41 235C54.7 235 68.3 253 82 251.5C95.7 250 109.3 229 123 215.5C136.7 202 150.3 196 164 214C177.7 232 191.3 274 204.8 295C218.3 316 231.7 316 245.2 302.5C258.7 289 272.3 262 286 272.5C299.7 283 313.3 331 327 322C340.7 313 354.3 247 368 242.5C381.7 238 395.3 295 409 329.5C422.7 364 436.3 376 443.2 382L450 388L450 0L443.2 0C436.3 0 422.7 0 409 0C395.3 0 381.7 0 368 0C354.3 0 340.7 0 327 0C313.3 0 299.7 0 286 0C272.3 0 258.7 0 245.2 0C231.7 0 218.3 0 204.8 0C191.3 0 177.7 0 164 0C150.3 0 136.7 0 123 0C109.3 0 95.7 0 82 0C68.3 0 54.7 0 41 0C27.3 0 13.7 0 6.8 0L0 0Z" fill="#001b98"></path><path d="M0 325L6.8 319C13.7 313 27.3 301 41 316C54.7 331 68.3 373 82 368.5C95.7 364 109.3 313 123 287.5C136.7 262 150.3 262 164 286C177.7 310 191.3 358 204.8 383.5C218.3 409 231.7 412 245.2 404.5C258.7 397 272.3 379 286 383.5C299.7 388 313.3 415 327 406C340.7 397 354.3 352 368 353.5C381.7 355 395.3 403 409 434.5C422.7 466 436.3 481 443.2 488.5L450 496L450 386L443.2 380C436.3 374 422.7 362 409 327.5C395.3 293 381.7 236 368 240.5C354.3 245 340.7 311 327 320C313.3 329 299.7 281 286 270.5C272.3 260 258.7 287 245.2 300.5C231.7 314 218.3 314 204.8 293C191.3 272 177.7 230 164 212C150.3 194 136.7 200 123 213.5C109.3 227 95.7 248 82 249.5C68.3 251 54.7 233 41 233C27.3 233 13.7 251 6.8 260L0 269Z" fill="#082eb1"></path><path d="M0 415L6.8 427C13.7 439 27.3 463 41 494.5C54.7 526 68.3 565 82 554.5C95.7 544 109.3 484 123 451C136.7 418 150.3 412 164 433C177.7 454 191.3 502 204.8 517C218.3 532 231.7 514 245.2 514C258.7 514 272.3 532 286 547C299.7 562 313.3 574 327 559C340.7 544 354.3 502 368 512.5C381.7 523 395.3 586 409 604C422.7 622 436.3 595 443.2 581.5L450 568L450 494L443.2 486.5C436.3 479 422.7 464 409 432.5C395.3 401 381.7 353 368 351.5C354.3 350 340.7 395 327 404C313.3 413 299.7 386 286 381.5C272.3 377 258.7 395 245.2 402.5C231.7 410 218.3 407 204.8 381.5C191.3 356 177.7 308 164 284C150.3 260 136.7 260 123 285.5C109.3 311 95.7 362 82 366.5C68.3 371 54.7 329 41 314C27.3 299 13.7 311 6.8 317L0 323Z" fill="#0c40ca"></path><path d="M0 766L6.8 773.5C13.7 781 27.3 796 41 808C54.7 820 68.3 829 82 818.5C95.7 808 109.3 778 123 770.5C136.7 763 150.3 778 164 776.5C177.7 775 191.3 757 204.8 755.5C218.3 754 231.7 769 245.2 767.5C258.7 766 272.3 748 286 743.5C299.7 739 313.3 748 327 758.5C340.7 769 354.3 781 368 787C381.7 793 395.3 793 409 782.5C422.7 772 436.3 751 443.2 740.5L450 730L450 566L443.2 579.5C436.3 593 422.7 620 409 602C395.3 584 381.7 521 368 510.5C354.3 500 340.7 542 327 557C313.3 572 299.7 560 286 545C272.3 530 258.7 512 245.2 512C231.7 512 218.3 530 204.8 515C191.3 500 177.7 452 164 431C150.3 410 136.7 416 123 449C109.3 482 95.7 542 82 552.5C68.3 563 54.7 524 41 492.5C27.3 461 13.7 437 6.8 425L0 413Z" fill="#0b53e4"></path><path d="M0 901L6.8 901C13.7 901 27.3 901 41 901C54.7 901 68.3 901 82 901C95.7 901 109.3 901 123 901C136.7 901 150.3 901 164 901C177.7 901 191.3 901 204.8 901C218.3 901 231.7 901 245.2 901C258.7 901 272.3 901 286 901C299.7 901 313.3 901 327 901C340.7 901 354.3 901 368 901C381.7 901 395.3 901 409 901C422.7 901 436.3 901 443.2 901L450 901L450 728L443.2 738.5C436.3 749 422.7 770 409 780.5C395.3 791 381.7 791 368 785C354.3 779 340.7 767 327 756.5C313.3 746 299.7 737 286 741.5C272.3 746 258.7 764 245.2 765.5C231.7 767 218.3 752 204.8 753.5C191.3 755 177.7 773 164 774.5C150.3 776 136.7 761 123 768.5C109.3 776 95.7 806 82 816.5C68.3 827 54.7 818 41 806C27.3 794 13.7 779 6.8 771.5L0 764Z" fill="#0066ff"></path></svg>